<svg aria-hidden="true" style="width:0;height:0;position:absolute;overflow:hidden" xmlns="http://www.w3.org/2000/svg"><defs><symbol id="icon-ukraine" viewBox="0 0 43 32"><path fill="#ffd500" style="fill:var(--color1,#ffd500)" d="M0 0h42.667v32H0z"/><path fill="#005bbb" style="fill:var(--color2,#005bbb)" d="M0 0h42.667v16H0z"/></symbol><symbol id="icon-united" viewBox="0 0 43 32"><path fill="#bd3d44" style="fill:var(--color3,#bd3d44)" d="M0 0h60.801v2.462H0zm0 4.923h60.801v2.462H0zm0 4.923h60.801v2.462H0zm0 4.923h60.801v2.462H0zm0 4.923h60.801v2.462H0zm0 4.924h60.801v2.462H0zm0 4.923h60.801v2.462H0z"/><path fill="#fff" style="fill:var(--color4,#fff)" d="M0 2.462h60.801v2.462H0zm0 4.923h60.801v2.462H0zm0 4.923h60.801v2.462H0zm0 4.923h60.801v2.462H0zm0 4.923h60.801v2.462H0zm0 4.923h60.801v2.462H0z"/><path fill="#192f5d" style="fill:var(--color5,#192f5d)" d="M0 0h24.32v17.231H0z"/><path fill="#fff" style="fill:var(--color4,#fff)" d="m2.027.738.221.681h.716l-.579.421.221.681-.579-.421-.579.421.221-.681-.579-.421h.716zm4.053 0 .221.681h.716l-.579.421.221.681L6.08 2.1l-.579.421.221-.681-.579-.421h.716zm4.053 0 .221.681h.716l-.579.421.221.681-.579-.421-.579.421.221-.681-.579-.421h.716zm4.054 0 .221.681h.716l-.579.421.221.681-.579-.421-.579.421.221-.681-.579-.421h.716zm4.053 0 .221.681h.716l-.579.421.221.681-.579-.421-.579.421.221-.681-.579-.421h.716zm4.054 0 .221.681h.716l-.579.421.221.681-.579-.421-.579.421.221-.681-.579-.421h.716zM4.053 2.461l.221.681h.716l-.579.421.221.681-.579-.421-.579.421.221-.681-.579-.421h.716zm4.054 0 .221.681h.716l-.579.421.221.681-.579-.421-.579.421.221-.681-.579-.421h.716zm4.053 0 .221.681h.716l-.579.421.221.681-.579-.421-.579.421.221-.681-.579-.421h.716zm4.054 0 .221.681h.716l-.579.421.221.681-.579-.421-.579.421.221-.681-.579-.421h.716zm4.053 0 .221.681h.716l-.579.421.221.681-.579-.421-.579.421.221-.681-.579-.421h.716zM2.027 4.184l.221.681h.716l-.579.421.221.681-.579-.421-.579.421.221-.681-.579-.421h.716zm4.053 0 .221.681h.716l-.579.421.221.681-.579-.421-.579.421.221-.681-.579-.421h.716zm4.053 0 .221.681h.716l-.579.421.221.681-.579-.421-.579.421.221-.681-.579-.421h.716zm4.054 0 .221.681h.716l-.579.421.221.681-.579-.421-.579.421.221-.681-.579-.421h.716zm4.053 0 .221.681h.716l-.579.421.221.681-.579-.421-.579.421.221-.681-.579-.421h.716zm4.054 0 .221.681h.716l-.579.421.221.681-.579-.421-.579.421.221-.681-.579-.421h.716zM4.053 5.907l.221.681h.716l-.579.421.221.681-.579-.421-.579.421.221-.681-.579-.421h.716zm4.054 0 .221.681h.716l-.579.421.221.681-.579-.421-.579.421.221-.681-.579-.421h.716zm4.053 0 .221.681h.716l-.579.421.221.681-.579-.421-.579.421.221-.681-.579-.421h.716zm4.054 0 .221.681h.716l-.579.421.221.681-.579-.421-.579.421.221-.681-.579-.421h.716zm4.053 0 .221.681h.716l-.579.421.221.681-.579-.421-.579.421.221-.681-.579-.421h.716zM2.027 7.63l.221.681h.716l-.579.421.221.681-.579-.421-.579.421.221-.681-.579-.421h.716zm4.053 0 .221.681h.716l-.579.421.221.681-.579-.421-.579.421.221-.681-.579-.421h.716zm4.053 0 .221.681h.716l-.579.421.221.681-.579-.421-.579.421.221-.681-.579-.421h.716zm4.054 0 .221.681h.716l-.579.421.221.681-.579-.421-.579.421.221-.681-.579-.421h.716zm4.053 0 .221.681h.716l-.579.421.221.681-.579-.421-.579.421.221-.681-.579-.421h.716zm4.054 0 .221.681h.716l-.579.421.221.681-.579-.421-.579.421.221-.681-.579-.421h.716zM4.053 9.353l.221.681h.716l-.579.421.221.681-.579-.421-.579.421.221-.681-.579-.421h.716zm4.054 0 .221.681h.716l-.579.421.221.681-.579-.421-.579.421.221-.681-.579-.421h.716zm4.053 0 .221.681h.716l-.579.421.221.681-.579-.421-.579.421.221-.681-.579-.421h.716zm4.054 0 .221.681h.716l-.579.421.221.681-.579-.421-.579.421.221-.681-.579-.421h.716zm4.053 0 .221.681h.716l-.579.421.221.681-.579-.421-.579.421.221-.681-.579-.421h.716zm-18.24 1.723.221.681h.716l-.579.421.221.681-.579-.421-.579.421.221-.681-.579-.421h.716zm4.053 0 .221.681h.716l-.579.421.221.681-.579-.421-.579.421.221-.681-.579-.421h.716zm4.053 0 .221.681h.716l-.579.421.221.681-.579-.421-.579.421.221-.681-.579-.421h.716zm4.054 0 .221.681h.716l-.579.421.221.681-.579-.421-.579.421.221-.681-.579-.421h.716zm4.053 0 .221.681h.716l-.579.421.221.681-.579-.421-.579.421.221-.681-.579-.421h.716zm4.054 0 .221.681h.716l-.579.421.221.681-.579-.421-.579.421.221-.681-.579-.421h.716zM4.053 12.799l.221.681h.716l-.579.421.221.681-.579-.421-.579.421.221-.681-.579-.421h.716zm4.054 0 .221.681h.716l-.579.421.221.681-.579-.421-.579.421.221-.681-.579-.421h.716zm4.053 0 .221.681h.716l-.579.421.221.681-.579-.421-.579.421.221-.681-.579-.421h.716zm4.054 0 .221.681h.716l-.579.421.221.681-.579-.421-.579.421.221-.681-.579-.421h.716zm4.053 0 .221.681h.716l-.579.421.221.681-.579-.421-.579.421.221-.681-.579-.421h.716zm-18.24 1.723.221.681h.716l-.579.421.221.681-.579-.421-.579.421.221-.681-.579-.421h.716zm4.053 0 .221.681h.716l-.579.421.221.681-.579-.421-.579.421.221-.681-.579-.421h.716zm4.053 0 .221.681h.716l-.579.421.221.681-.579-.421-.579.421.221-.681-.579-.421h.716zm4.054 0 .221.681h.716l-.579.421.221.681-.579-.421-.579.421.221-.681-.579-.421h.716zm4.053 0 .221.681h.716l-.579.421.221.681-.579-.421-.579.421.221-.681-.579-.421h.716zm4.054 0 .221.681h.716l-.579.421.221.681-.579-.421-.579.421.221-.681-.579-.421h.716z"/></symbol></defs></svg>